{"title":"Mission.Impossible.Ghost.Protocol.2011.BRRip.XviD.Ac3.Feel-Free","uid":7156465,"size":1550641626,"categoryP":"video","categoryS":"movies","magnet":"?xt=urn:btih:cf60e621a3f7491f55f41ec8c42db53bb1003f75&amp;dn=Mission.Impossible.Ghost.Protocol.2011.BRRip.XviD.Ac3.Feel-Free&amp;tr=udp%3A%2F%2Ftracker.openbittorrent.com%3A80&amp;tr=udp%3A%2F%2Fopen.demonii.com%3A1337&amp;tr=udp%3A%2F%2Ftracker.coppersurfer.tk%3A6969&amp;tr=udp%3A%2F%2Fexodus.desync.com%3A6969","seeders":0,"leechers":1,"uploader":null,"files":8,"time":1333469501,"description":"Genre:Action | Adventure | Thriller\nLanguage:English\nIMDb:http://www.imdb.com/title/tt1229238/\nSource:720p.BluRay.x264-SPARKS Thanks!\nEncoder:Tony\n\nFormat : AVI\nFormat/Info : Audio Video Interleave\nFile size : 1.44 GiB\nDuration : 2h 12mn\nOverall bit rate : 1 554 Kbps\n\nVideo\nID : 0\nFormat : MPEG-4 Visual\nFormat profile : Advanced Simple@L5\nFormat settings, BVOP : 1\nFormat settings, QPel : No\nFormat settings, GMC : No warppoints\nFormat settings, Matrix : Default (H.263)\nCodec ID : XVID\nCodec ID/Hint : XviD\nDuration : 2h 12mn\nBit rate : 1 097 Kbps\nWidth : 624 pixels\nHeight : 264 pixels\nDisplay aspect ratio : 2.35:1\nFrame rate : 23.976 fps\nColor space : YUV\nChroma subsampling : 4:2:0\nBit depth : 8 bits\nScan type : Progressive\nCompression mode : Lossy\nBits/(Pixel*Frame) : 0.278\nStream size : 1.02 GiB (71%)\nWriting library : XviD 1.2.1 (UTC 2008-12-04)\n\nAudio\nID : 1\nFormat : AC-3\nFormat/Info : Audio Coding 3\nMode extension : CM (complete main)\nCodec ID : 2000\nDuration : 2h 12mn\nBit rate mode : Constant\nBit rate : 448 Kbps\nChannel(s) : 6 channels\nChannel positions : Front: L C R, Side: L R, LFE\nSampling rate : 48.0 KHz\nBit depth : 16 bits\nCompression mode : Lossy\nStream size : 426 MiB (29%)\nAlignment : Aligned on interleaves\nInterleave, duration : 42 ms (1.00 video frame)\nInterleave, preload duration : 512 ms\n\n\nPlot:\nThe IMF is shut down when it's implicated in the bombing of the Kremlin, causing Ethan Hunt and his new team to go rogue to clear their organization's name\n\nTRAILER:","torrent":{"xt":"urn:btih:cf60e621a3f7491f55f41ec8c42db53bb1003f75","amp;dn":"Mission.Impossible.Ghost.Protocol.2011.BRRip.XviD.Ac3.Feel-Free","amp;tr":["udp%3A%2F%2Ftracker.openbittorrent.com%3A80","udp%3A%2F%2Fopen.demonii.com%3A1337","udp%3A%2F%2Ftracker.coppersurfer.tk%3A6969","udp%3A%2F%2Fexodus.desync.com%3A6969"],"infoHash":"cf60e621a3f7491f55f41ec8c42db53bb1003f75","infoHashBuffer":{"type":"Buffer","data":[207,96,230,33,163,247,73,31,85,244,30,200,196,45,181,59,177,0,63,117]},"announce":[],"urlList":[]}}